<?xml version="1.0" encoding="utf-8"?>
<svg xmlns="http://www.w3.org/2000/svg" viewBox="3.334 3.334 179.166 33.333" width="179.166px" height="33.333px">
  <defs>
    <linearGradient gradientUnits="userSpaceOnUse" x1="106.881" y1="6.389" x2="106.881" y2="32.639" id="gradient-0" gradientTransform="matrix(0.999991, -0.004145, 0.005312, 1.281559, -0.033023, -1.355832)">
      <stop offset="0" style="stop-color: rgb(255, 255, 255);"/>
      <stop offset="1" style="stop-color: rgb(118, 113, 113);"/>
    </linearGradient>
    <linearGradient gradientUnits="userSpaceOnUse" x1="174.293" y1="14.089" x2="174.293" y2="32.639" id="gradient-1" gradientTransform="matrix(0.999967, -0.008128, 0.015036, 1.849488, -60.727952, -18.639859)">
      <stop offset="0" style="stop-color: rgb(255, 255, 255);"/>
      <stop offset="1" style="stop-color: rgb(114, 114, 114);"/>
    </linearGradient>
  </defs>
  <path fill="#633CFF" fill-rule="evenodd" d="M5.774 34.225c2.443 2.442 6.37 2.442 14.226 2.442 7.857 0 11.785 0 14.225-2.442 2.442-2.438 2.442-6.368 2.442-14.225 0-7.857 0-11.785-2.442-14.226-2.438-2.44-6.368-2.44-14.225-2.44-7.857 0-11.785 0-14.226 2.44-2.44 2.443-2.44 6.37-2.44 14.226 0 7.857 0 11.785 2.44 14.225Zm10.06-19.642A5.416 5.416 0 1 0 21.25 20a1.25 1.25 0 1 1 2.5 0 7.917 7.917 0 1 1-7.916-7.916 1.25 1.25 0 0 1 0 2.5ZM29.584 20a5.417 5.417 0 0 1-5.417 5.417 1.25 1.25 0 0 0 0 2.5A7.917 7.917 0 1 0 16.25 20a1.25 1.25 0 0 0 2.5 0 5.416 5.416 0 1 1 10.834 0Z" clip-rule="evenodd"/>
  <path d="M 61.247 32.289 L 61.247 28.334 L 61.593 28.404 C 61.363 29.687 60.67 30.714 59.516 31.484 C 58.385 32.254 57.023 32.639 55.43 32.639 C 53.814 32.639 52.406 32.266 51.205 31.519 C 50.028 30.749 49.116 29.676 48.47 28.299 C 47.823 26.922 47.5 25.301 47.5 23.434 C 47.5 21.544 47.835 19.899 48.504 18.499 C 49.174 17.099 50.109 16.014 51.309 15.244 C 52.533 14.474 53.952 14.089 55.569 14.089 C 57.253 14.089 58.615 14.486 59.654 15.279 C 60.716 16.072 61.339 17.157 61.524 18.534 L 61.144 18.569 L 61.144 7.089 L 66.338 7.089 L 66.338 32.289 L 61.248 32.289 L 61.247 32.289 Z M 57.092 28.439 C 58.315 28.439 59.308 28.007 60.07 27.144 C 60.832 26.257 61.213 24.997 61.213 23.364 C 61.213 21.731 60.82 20.482 60.035 19.619 C 59.273 18.732 58.269 18.289 57.023 18.289 C 55.823 18.289 54.829 18.732 54.045 19.619 C 53.283 20.506 52.902 21.766 52.902 23.399 C 52.902 25.032 53.282 26.281 54.045 27.144 C 54.83 28.007 55.845 28.439 57.092 28.439 L 57.092 28.439 Z M 78.801 32.639 C 76.839 32.639 75.131 32.254 73.676 31.484 C 72.222 30.691 71.091 29.594 70.283 28.194 C 69.498 26.794 69.105 25.184 69.105 23.364 C 69.105 21.521 69.498 19.911 70.283 18.534 C 71.071 17.153 72.236 16.024 73.641 15.279 C 75.073 14.486 76.735 14.089 78.628 14.089 C 80.452 14.089 82.033 14.462 83.372 15.209 C 84.685 15.931 85.766 17.011 86.488 18.324 C 87.227 19.654 87.596 21.217 87.596 23.014 C 87.596 23.387 87.585 23.737 87.562 24.064 C 87.539 24.367 87.504 24.659 87.458 24.939 L 72.153 24.939 L 72.153 21.474 L 83.268 21.474 L 82.368 22.104 C 82.368 20.657 82.021 19.596 81.328 18.919 C 80.659 18.219 79.736 17.869 78.558 17.869 C 77.197 17.869 76.135 18.336 75.373 19.269 C 74.634 20.202 74.265 21.602 74.265 23.469 C 74.265 25.289 74.635 26.642 75.373 27.529 C 76.135 28.416 77.266 28.859 78.766 28.859 C 79.597 28.859 80.313 28.719 80.913 28.439 C 81.513 28.159 81.963 27.704 82.263 27.074 L 87.146 27.074 C 86.569 28.801 85.576 30.166 84.168 31.169 C 82.783 32.149 80.994 32.639 78.801 32.639 L 78.801 32.639 Z M 94.68 32.289 L 87.72 14.439 L 93.295 14.439 L 98.732 31.099 L 95.822 31.099 L 101.225 14.439 L 106.661 14.439 L 99.701 32.289 L 94.681 32.289 L 94.68 32.289 Z M 108.669 32.289 L 108.669 7.089 L 113.863 7.089 L 113.863 32.289 L 108.669 32.289 Z M 118.002 32.289 L 118.002 14.439 L 123.196 14.439 L 123.196 32.289 L 118.002 32.289 L 118.002 32.289 Z M 117.829 12.059 L 117.829 6.389 L 123.369 6.389 L 123.369 12.059 L 117.829 12.059 L 117.829 12.059 Z M 127.335 32.289 L 127.335 14.439 L 132.425 14.439 L 132.425 18.639 L 132.529 18.639 L 132.529 32.289 L 127.335 32.289 Z M 139.628 32.289 L 139.628 21.229 C 139.628 20.249 139.374 19.514 138.866 19.024 C 138.381 18.534 137.666 18.289 136.719 18.289 C 135.911 18.289 135.184 18.476 134.538 18.849 C 133.915 19.222 133.401 19.754 133.049 20.389 C 132.702 21.042 132.529 21.812 132.529 22.699 L 132.079 18.394 C 132.656 17.087 133.499 16.049 134.607 15.279 C 135.738 14.486 137.123 14.089 138.762 14.089 C 140.725 14.089 142.225 14.649 143.264 15.769 C 144.303 16.866 144.822 18.347 144.822 20.214 L 144.822 32.289 L 139.628 32.289 Z M 148.775 32.289 L 148.775 7.089 L 153.969 7.089 L 153.969 32.289 L 148.775 32.289 Z M 160.098 32.289 L 152.757 23.014 L 159.925 14.439 L 165.915 14.439 L 157.501 23.819 L 157.743 22.174 L 166.262 32.289 L 160.098 32.289 L 160.098 32.289 Z" style="fill: url(&quot;#gradient-0&quot;);"/>
  <path d="M 174.743 32.639 C 172.158 32.639 170.103 32.114 168.58 31.064 C 167.056 30.014 166.225 28.567 166.086 26.724 L 170.727 26.724 C 170.842 27.517 171.234 28.124 171.904 28.544 C 172.596 28.941 173.543 29.139 174.743 29.139 C 175.828 29.139 176.613 28.987 177.098 28.684 C 177.606 28.357 177.86 27.902 177.86 27.319 C 177.86 26.876 177.71 26.537 177.41 26.304 C 177.133 26.047 176.613 25.837 175.852 25.674 L 173.012 25.079 C 170.911 24.636 169.365 23.971 168.372 23.084 C 167.379 22.174 166.883 21.007 166.883 19.584 C 166.883 17.857 167.541 16.516 168.857 15.559 C 170.173 14.579 172.008 14.089 174.363 14.089 C 176.694 14.089 178.552 14.567 179.938 15.524 C 181.323 16.457 182.084 17.764 182.223 19.444 L 177.583 19.444 C 177.491 18.837 177.167 18.382 176.613 18.079 C 176.059 17.752 175.274 17.589 174.259 17.589 C 173.335 17.589 172.643 17.729 172.181 18.009 C 171.742 18.266 171.523 18.639 171.523 19.129 C 171.523 19.549 171.708 19.887 172.077 20.144 C 172.446 20.377 173.058 20.587 173.912 20.774 L 177.098 21.439 C 178.876 21.812 180.215 22.512 181.115 23.539 C 182.038 24.542 182.5 25.732 182.5 27.109 C 182.5 28.859 181.819 30.224 180.457 31.204 C 179.118 32.161 177.214 32.639 174.743 32.639 L 174.743 32.639 Z" style="fill: url(&quot;#gradient-1&quot;);"/>
</svg>