<?xml version="1.0" encoding="utf-8"?>
<svg xmlns="http://www.w3.org/2000/svg" viewBox="0 0 642.14 517.13" width="642.14px" height="517.13px">
  <defs>
    <style>      .cls-1 {        fill: #ff7300;      }    </style>
  </defs>
  <path class="cls-1" d="m477.01,302.28c98.49-54.83,165.13-159.99,165.13-280.72,0-1.11-.01-2.22-.02-3.32-.06-6.12-.29-12.2-.7-18.24-6.08.66-12.11,1.48-18.08,2.47-142.72,23.72-253.61,141.57-266.74,287.6-.64,7.12-1.04,14.32-1.21,21.57-.06,2.5-.09,5.02-.09,7.54,0,1.11.01,2.22.02,3.32-5.5.62-11.05,1.09-16.64,1.41-3.12.18-6.25.31-9.4.4-2.73.07-5.46.11-8.21.11s-5.45-.04-8.17-.11c-3.15-.08-6.28-.22-9.4-.4-5.59-.32-11.14-.79-16.64-1.41.01-1.11.02-2.22.02-3.33,0-2.52-.03-5.03-.09-7.54-.17-7.25-.57-14.45-1.21-21.57C272.45,144.03,161.53,26.17,18.8,2.47,12.83,1.48,6.8.66.72,0,.32,6.03.08,12.11.02,18.24c0,1.11-.02,2.22-.02,3.33,0,120.74,66.64,225.9,165.15,280.73,6.19,3.44,12.5,6.69,18.93,9.72,26.24,12.4,54.44,21.35,84,26.26-.8,12.83-2.4,25.45-4.74,37.8-8.44,44.42-26.58,85.4-52.14,120.66-43.9-10.97-76.42-50.66-76.42-97.95,0-22.13,7.13-42.6,19.2-59.23-5.52-2.91-10.96-5.96-16.31-9.14-13.54,19.38-21.48,42.95-21.48,68.38,0,53.18,34.72,98.24,82.73,113.77,6.35,2.05,12.94,3.59,19.71,4.56,4.45-5.67,8.7-11.49,12.76-17.46,24.4-35.84,41.73-76.88,50-121.12,2.31-12.36,3.91-24.96,4.76-37.77,4.98.54,9.98.96,15.02,1.27,6.12.37,12.28.58,18.48.6h1.41c.47,0,.96,0,1.45-.01,6.2-.03,12.36-.23,18.48-.6,5.04-.31,10.05-.74,15.02-1.27.85,12.81,2.45,25.42,4.76,37.77,8.26,44.24,25.6,85.28,50,121.12,4.06,5.97,8.32,11.79,12.76,17.46,6.77-.97,13.35-2.51,19.71-4.56,48.01-15.53,82.73-60.59,82.73-113.77,0-25.44-7.95-49.01-21.49-68.39-5.35,3.18-10.78,6.23-16.31,9.14,12.08,16.64,19.21,37.11,19.21,59.25,0,47.29-32.52,86.99-76.42,97.95-25.56-35.26-43.7-76.24-52.14-120.66-2.35-12.35-3.94-24.96-4.74-37.8,29.55-4.91,57.74-13.86,83.98-26.26,6.43-3.04,12.75-6.28,18.93-9.73h.02Zm-270.35-.2c-7.97-3.25-15.77-6.84-23.39-10.74C85.27,241.18,18.2,139.21,18.2,21.56v-.72c130.71,22.8,232.62,129.39,248.35,262.4.78,6.58,1.35,13.22,1.7,19.92.28,5.31.42,10.65.42,16.03v.72c-21.54-3.76-42.3-9.79-62.02-17.83h0Zm166.85,17.83v-.71c0-5.38.14-10.72.42-16.03.35-6.7.92-13.34,1.7-19.92,15.73-132.99,117.62-239.58,248.31-262.39v.71c0,117.64-67.07,219.61-165.05,269.76-7.62,3.9-15.42,7.48-23.39,10.74-19.71,8.05-40.46,14.08-61.99,17.83h0Z"/>
</svg>