<?xml version="1.0" standalone="no"?>
<!DOCTYPE svg PUBLIC "-//W3C//DTD SVG 20010904//EN"
 "http://www.w3.org/TR/2001/REC-SVG-20010904/DTD/svg10.dtd">
<svg version="1.0" xmlns="http://www.w3.org/2000/svg"
 width="480.000000pt" height="88.000000pt" viewBox="0 0 480.000000 88.000000"
 preserveAspectRatio="xMidYMid meet">

<g transform="translate(0.000000,88.000000) scale(0.100000,-0.100000)"
fill="#000000" stroke="none">
<path d="M0 440 l0 -440 65 0 65 0 0 128 0 128 48 47 47 47 175 -175 175 -175
90 0 90 0 -220 220 -220 220 213 213 c116 117 212 216 212 220 0 4 -37 7 -83
7 l-82 0 -220 -220 -220 -220 -5 217 -5 218 -62 3 -63 3 0 -441z"/>
<path d="M1840 440 l0 -440 65 0 65 0 -2 438 -3 437 -62 3 -63 3 0 -441z"/>
<path d="M2180 440 l0 -440 60 0 60 0 0 185 c0 140 3 187 13 190 6 2 73 6 148
7 l137 3 96 -192 96 -193 70 0 70 0 -107 214 -107 215 65 59 c100 92 149 199
149 330 l0 62 -375 0 -375 0 0 -440z m614 288 c-26 -86 -89 -157 -173 -197
-51 -24 -67 -26 -186 -26 l-130 0 -3 123 -3 122 251 0 251 0 -7 -22z"/>
<path d="M3385 870 c-187 -29 -329 -170 -365 -362 -51 -279 207 -542 490 -500
174 26 303 134 360 303 18 53 21 79 17 149 -2 47 -13 105 -23 130 -19 50 -75
140 -86 140 -3 0 -20 -24 -37 -53 l-30 -53 27 -54 c39 -78 38 -182 -1 -262
-85 -173 -300 -233 -459 -128 -199 132 -178 434 38 541 41 20 64 24 139 24 66
0 98 -5 122 -18 l32 -17 30 52 c16 29 28 56 25 59 -9 16 -112 47 -169 52 -33
2 -82 1 -110 -3z"/>
<path d="M4365 870 c-166 -5 -183 -7 -217 -28 -81 -50 -121 -121 -121 -212 0
-109 50 -187 148 -231 34 -16 67 -19 220 -19 161 0 183 -2 212 -20 50 -30 66
-62 61 -120 -6 -62 -33 -94 -93 -109 -54 -14 -278 -14 -324 -1 -44 12 -88 55
-96 91 -6 28 -8 29 -70 29 l-62 0 8 -45 c11 -58 29 -93 71 -131 70 -66 82 -69
308 -69 191 0 208 2 245 21 155 84 190 279 71 398 -65 65 -108 76 -308 76
-183 0 -207 5 -247 56 -26 33 -28 95 -5 134 33 54 55 60 248 60 l175 0 34 -30
c19 -16 38 -44 43 -62 9 -32 11 -33 72 -36 l63 -3 -7 38 c-20 118 -104 202
-214 214 -19 2 -116 2 -215 -1z"/>
<path d="M1056 441 c-119 -237 -216 -433 -216 -436 0 -3 30 -5 68 -5 l67 0
149 297 148 298 149 -298 149 -297 71 0 c39 0 69 3 67 8 -9 20 -431 857 -434
861 -1 2 -100 -191 -218 -428z"/>
<path d="M3534 578 c-38 -67 -71 -125 -72 -130 -2 -5 29 -8 68 -6 l73 3 48 85
c27 47 49 89 49 94 0 13 -69 76 -84 76 -7 0 -43 -55 -82 -122z"/>
</g>
</svg>
